ply
format ascii 1.0
element vertex 343
property float end_x
property float end_y
property float end_z
property int path_id
property int group_id
end_header
1.679423 -2.485868 0.000000 0 0
1.840582 -2.369020 0.000000 1 0
1.993638 -2.241742 0.000000 2 0
2.137916 -2.104594 0.000000 3 0
2.272780 -1.958180 0.000000 4 0
2.397639 -1.803144 0.000000 5 0
2.511940 -1.640170 0.000000 6 0
1.924048 -2.301747 0.000000 7 0
2.072458 -2.169082 0.000000 8 0
2.211744 -2.026867 0.000000 9 0
2.341291 -1.875728 0.000000 10 0
2.460531 -1.716330 0.000000 11 0
2.568936 -1.549376 0.000000 12 0
2.666032 -1.375600 0.000000 13 0
2.148632 -2.093653 0.000000 14 0
2.282747 -1.946552 0.000000 15 0
2.406812 -1.790881 0.000000 16 0
2.520281 -1.627325 0.000000 17 0
2.622652 -1.456604 0.000000 18 0
2.713477 -1.279469 0.000000 19 0
2.792355 -1.096702 0.000000 20 0
2.350836 -1.863751 0.000000 21 0
2.469260 -1.703747 0.000000 22 0
2.576813 -1.536241 0.000000 23 0
2.673020 -1.361971 0.000000 24 0
2.757458 -1.181705 0.000000 25 0
2.829755 -0.996236 0.000000 26 0
2.889593 -0.806381 0.000000 27 0
2.528555 -1.614437 0.000000 28 0
2.630054 -1.443196 0.000000 29 0
2.719974 -1.265600 0.000000 30 0
2.797917 -1.082432 0.000000 31 0
2.863542 -0.894499 0.000000 32 0
2.916559 -0.702627 0.000000 33 0
2.956735 -0.507661 0.000000 34 0
2.679938 -1.348308 0.000000 35 0
2.763454 -1.167613 0.000000 36 0
2.834804 -0.981777 0.000000 37 0
2.893672 -0.791619 0.000000 38 0
2.939800 -0.597976 0.000000 39 0
2.972985 -0.401699 0.000000 40 0
2.993080 -0.203654 0.000000 41 0
2.803406 -1.068135 0.000000 42 0
2.868071 -0.879869 0.000000 43 0
2.920108 -0.687729 0.000000 44 0
2.959288 -0.492561 0.000000 45 0
2.985438 -0.295224 0.000000 46 0
2.998445 -0.096587 0.000000 47 0
2.998249 0.102475 0.000000 48 0
2.047622 -2.192543 0.000000 49 1
2.188518 -2.051923 0.000000 50 1
2.319779 -1.902269 0.000000 51 1
2.440825 -1.744240 0.000000 52 1
2.551126 -1.578530 0.000000 53 1
2.650194 -1.405871 0.000000 54 1
2.737593 -1.227022 0.000000 55 1
2.260432 -1.972422 0.000000 56 1
2.386262 -1.818173 0.000000 57 1
2.501585 -1.655920 0.000000 58 1
2.605895 -1.486376 0.000000 59 1
2.698731 -1.310288 0.000000 60 1
2.779684 -1.128430 0.000000 61 1
2.848400 -0.941605 0.000000 62 1
2.449698 -1.731756 0.000000 63 1
2.559151 -1.565486 0.000000 64 1
2.657336 -1.392324 0.000000 65 1
2.743821 -1.213031 0.000000 66 1
2.818226 -1.028397 0.000000 67 1
2.880223 -0.839236 0.000000 68 1
2.929538 -0.646379 0.000000 69 1
2.613449 -1.473053 0.000000 70 1
2.705384 -1.296493 0.000000 71 1
2.785409 -1.114225 0.000000 72 1
2.853170 -0.927051 0.000000 73 1
2.908368 -0.735795 0.000000 74 1
2.950762 -0.541300 0.000000 75 1
2.980163 -0.344421 0.000000 76 1
2.749978 -1.199008 0.000000 77 1
2.823440 -1.013997 0.000000 78 1
2.884470 -0.824521 0.000000 79 1
2.932800 -0.631415 0.000000 80 1
2.968217 -0.435529 0.000000 81 1
2.990566 -0.237726 0.000000 82 1
2.999748 -0.038876 0.000000 83 1
2.857865 -0.912473 0.000000 84 1
2.912087 -0.720938 0.000000 85 1
2.953487 -0.526229 0.000000 86 1
2.981883 -0.329203 0.000000 87 1
2.997150 -0.130727 0.000000 88 1
2.999222 0.068324 0.000000 89 1
2.988088 0.267074 0.000000 90 1
2.935985 -0.616435 0.000000 91 1
2.970402 -0.420371 0.000000 92 1
2.991741 -0.222456 0.000000 93 1
2.999907 -0.023562 0.000000 94 1
2.994866 0.175436 0.000000 95 1
2.976638 0.373662 0.000000 96 1
2.945305 0.570242 0.000000 97 1
2.365402 -1.845230 0.000000 98 2
2.482565 -1.684301 0.000000 99 2
2.588799 -1.515956 0.000000 100 2
2.683634 -1.340936 0.000000 101 2
2.766654 -1.160012 0.000000 102 2
2.837492 -0.973981 0.000000 103 2
2.895837 -0.783662 0.000000 104 2
2.541157 -1.594528 0.000000 105 2
2.641308 -1.422495 0.000000 106 2
2.729830 -1.244199 0.000000 107 2
2.806332 -1.060425 0.000000 108 2
2.870479 -0.871981 0.000000 109 2
2.921987 -0.679699 0.000000 110 2
2.960631 -0.484424 0.000000 111 2
2.690445 -1.327218 0.000000 112 2
2.772539 -1.145873 0.000000 113 2
2.842427 -0.959483 0.000000 114 2
2.899800 -0.768868 0.000000 115 2
2.944406 -0.574868 0.000000 116 2
2.976048 -0.378337 0.000000 117 2
2.994587 -0.180140 0.000000 118 2
2.811709 -1.046084 0.000000 119 2
2.874893 -0.857316 0.000000 120 2
2.925419 -0.664773 0.000000 121 2
2.963065 -0.469303 0.000000 122 2
2.987665 -0.271767 0.000000 123 2
2.999111 -0.073035 0.000000 124 2
2.997352 0.126019 0.000000 125 2
2.903688 -0.754054 0.000000 126 2
2.947302 -0.559829 0.000000 127 2
2.977941 -0.363139 0.000000 128 2
2.995467 -0.164851 0.000000 129 2
2.999805 0.034164 0.000000 130 2
2.990936 0.233028 0.000000 131 2
2.968898 0.430866 0.000000 132 2
2.965422 -0.454171 0.000000 133 2
2.989014 -0.256512 0.000000 134 2
2.999445 -0.057723 0.000000 135 2
2.996670 0.141319 0.000000 136 2
2.980701 0.339740 0.000000 137 2
2.951608 0.536664 0.000000 138 2
2.909520 0.731226 0.000000 139 2
2.996270 -0.149556 0.000000 140 2
2.999592 0.049478 0.000000 141 2
2.989707 0.248294 0.000000 142 2
2.966659 0.446017 0.000000 143 2
2.930550 0.641777 0.000000 144 2
2.881538 0.834710 0.000000 145 2
2.819838 1.023969 0.000000 146 2
2.624937 -1.452482 0.000000 147 3
2.715484 -1.275206 0.000000 148 3
2.794074 -1.092314 0.000000 149 3
2.860363 -0.904614 0.000000 150 3
2.914057 -0.712931 0.000000 151 3
2.954922 -0.518108 0.000000 152 3
2.982777 -0.321005 0.000000 153 3
2.759310 -1.177373 0.000000 154 3
2.831316 -0.991790 0.000000 155 3
2.890856 -0.801841 0.000000 156 3
2.937668 -0.608362 0.000000 157 3
2.971546 -0.412204 0.000000 158 3
2.992341 -0.214231 0.000000 159 3
2.999961 -0.015315 0.000000 160 3
2.864943 -0.890000 0.000000 161 3
2.917659 -0.698045 0.000000 162 3
2.957528 -0.503016 0.000000 163 3
2.984376 -0.305773 0.000000 164 3
2.998085 -0.107184 0.000000 165 3
2.998593 0.091877 0.000000 166 3
2.985899 0.290534 0.000000 167 3
2.940736 -0.593357 0.000000 168 3
2.973612 -0.397029 0.000000 169 3
2.993396 -0.198952 0.000000 170 3
3.000000 0.000000 0.000000 171 3
2.993396 0.198952 0.000000 172 3
2.973612 0.397029 0.000000 173 3
2.940736 0.593357 0.000000 174 3
2.985899 -0.290534 0.000000 175 3
2.998593 -0.091877 0.000000 176 3
2.998085 0.107184 0.000000 177 3
2.984376 0.305773 0.000000 178 3
2.957528 0.503016 0.000000 179 3
2.917659 0.698045 0.000000 180 3
2.864943 0.890000 0.000000 181 3
2.999961 0.015315 0.000000 182 3
2.992341 0.214231 0.000000 183 3
2.971546 0.412204 0.000000 184 3
2.937668 0.608362 0.000000 185 3
2.890856 0.801841 0.000000 186 3
2.831316 0.991790 0.000000 187 3
2.759310 1.177373 0.000000 188 3
2.982777 0.321005 0.000000 189 3
2.954922 0.518108 0.000000 190 3
2.914057 0.712931 0.000000 191 3
2.860363 0.904614 0.000000 192 3
2.794074 1.092314 0.000000 193 3
2.715484 1.275206 0.000000 194 3
2.624937 1.452482 0.000000 195 3
2.819838 -1.023969 0.000000 196 4
2.881538 -0.834710 0.000000 197 4
2.930550 -0.641777 0.000000 198 4
2.966659 -0.446017 0.000000 199 4
2.989707 -0.248294 0.000000 200 4
2.999592 -0.049478 0.000000 201 4
2.996270 0.149556 0.000000 202 4
2.909520 -0.731226 0.000000 203 4
2.951608 -0.536664 0.000000 204 4
2.980701 -0.339740 0.000000 205 4
2.996670 -0.141319 0.000000 206 4
2.999445 0.057723 0.000000 207 4
2.989014 0.256512 0.000000 208 4
2.965422 0.454171 0.000000 209 4
2.968898 -0.430866 0.000000 210 4
2.990936 -0.233028 0.000000 211 4
2.999805 -0.034164 0.000000 212 4
2.995467 0.164851 0.000000 213 4
2.977941 0.363139 0.000000 214 4
2.947302 0.559829 0.000000 215 4
2.903688 0.754054 0.000000 216 4
2.997352 -0.126019 0.000000 217 4
2.999111 0.073035 0.000000 218 4
2.987665 0.271767 0.000000 219 4
2.963065 0.469303 0.000000 220 4
2.925419 0.664773 0.000000 221 4
2.874893 0.857316 0.000000 222 4
2.811709 1.046084 0.000000 223 4
2.994587 0.180140 0.000000 224 4
2.976048 0.378337 0.000000 225 4
2.944406 0.574868 0.000000 226 4
2.899800 0.768868 0.000000 227 4
2.842427 0.959483 0.000000 228 4
2.772539 1.145873 0.000000 229 4
2.690445 1.327218 0.000000 230 4
2.960631 0.484424 0.000000 231 4
2.921987 0.679699 0.000000 232 4
2.870479 0.871981 0.000000 233 4
2.806332 1.060425 0.000000 234 4
2.729830 1.244199 0.000000 235 4
2.641308 1.422495 0.000000 236 4
2.541157 1.594528 0.000000 237 4
2.895837 0.783662 0.000000 238 4
2.837492 0.973981 0.000000 239 4
2.766654 1.160012 0.000000 240 4
2.683634 1.340936 0.000000 241 4
2.588799 1.515956 0.000000 242 4
2.482565 1.684301 0.000000 243 4
2.365402 1.845230 0.000000 244 4
2.945305 -0.570242 0.000000 245 5
2.976638 -0.373662 0.000000 246 5
2.994866 -0.175436 0.000000 247 5
2.999907 0.023562 0.000000 248 5
2.991741 0.222456 0.000000 249 5
2.970402 0.420371 0.000000 250 5
2.935985 0.616435 0.000000 251 5
2.988088 -0.267074 0.000000 252 5
2.999222 -0.068324 0.000000 253 5
2.997150 0.130727 0.000000 254 5
2.981883 0.329203 0.000000 255 5
2.953487 0.526229 0.000000 256 5
2.912087 0.720938 0.000000 257 5
2.857865 0.912473 0.000000 258 5
2.999748 0.038876 0.000000 259 5
2.990566 0.237726 0.000000 260 5
2.968217 0.435529 0.000000 261 5
2.932800 0.631415 0.000000 262 5
2.884470 0.824521 0.000000 263 5
2.823440 1.013997 0.000000 264 5
2.749978 1.199008 0.000000 265 5
2.980163 0.344421 0.000000 266 5
2.950762 0.541300 0.000000 267 5
2.908368 0.735795 0.000000 268 5
2.853170 0.927051 0.000000 269 5
2.785409 1.114225 0.000000 270 5
2.705384 1.296493 0.000000 271 5
2.613449 1.473053 0.000000 272 5
2.929538 0.646379 0.000000 273 5
2.880223 0.839236 0.000000 274 5
2.818226 1.028397 0.000000 275 5
2.743821 1.213031 0.000000 276 5
2.657336 1.392324 0.000000 277 5
2.559151 1.565486 0.000000 278 5
2.449698 1.731756 0.000000 279 5
2.848400 0.941605 0.000000 280 5
2.779684 1.128430 0.000000 281 5
2.698731 1.310288 0.000000 282 5
2.605895 1.486376 0.000000 283 5
2.501585 1.655920 0.000000 284 5
2.386262 1.818173 0.000000 285 5
2.260432 1.972422 0.000000 286 5
2.737593 1.227022 0.000000 287 5
2.650194 1.405871 0.000000 288 5
2.551126 1.578530 0.000000 289 5
2.440825 1.744240 0.000000 290 5
2.319779 1.902269 0.000000 291 5
2.188518 2.051923 0.000000 292 5
2.047622 2.192543 0.000000 293 5
2.998249 -0.102475 0.000000 294 6
2.998445 0.096587 0.000000 295 6
2.985438 0.295224 0.000000 296 6
2.959288 0.492561 0.000000 297 6
2.920108 0.687729 0.000000 298 6
2.868071 0.879869 0.000000 299 6
2.803406 1.068135 0.000000 300 6
2.993080 0.203654 0.000000 301 6
2.972985 0.401699 0.000000 302 6
2.939800 0.597976 0.000000 303 6
2.893672 0.791619 0.000000 304 6
2.834804 0.981777 0.000000 305 6
2.763454 1.167613 0.000000 306 6
2.679938 1.348308 0.000000 307 6
2.956735 0.507661 0.000000 308 6
2.916559 0.702627 0.000000 309 6
2.863542 0.894499 0.000000 310 6
2.797917 1.082432 0.000000 311 6
2.719974 1.265600 0.000000 312 6
2.630054 1.443196 0.000000 313 6
2.528555 1.614437 0.000000 314 6
2.889593 0.806381 0.000000 315 6
2.829755 0.996236 0.000000 316 6
2.757458 1.181705 0.000000 317 6
2.673020 1.361971 0.000000 318 6
2.576813 1.536241 0.000000 319 6
2.469260 1.703747 0.000000 320 6
2.350836 1.863751 0.000000 321 6
2.792355 1.096702 0.000000 322 6
2.713477 1.279469 0.000000 323 6
2.622652 1.456604 0.000000 324 6
2.520281 1.627325 0.000000 325 6
2.406812 1.790881 0.000000 326 6
2.282747 1.946552 0.000000 327 6
2.148632 2.093653 0.000000 328 6
2.666032 1.375600 0.000000 329 6
2.568936 1.549376 0.000000 330 6
2.460531 1.716330 0.000000 331 6
2.341291 1.875728 0.000000 332 6
2.211744 2.026867 0.000000 333 6
2.072458 2.169082 0.000000 334 6
1.924048 2.301747 0.000000 335 6
2.511940 1.640170 0.000000 336 6
2.397639 1.803144 0.000000 337 6
2.272780 1.958180 0.000000 338 6
2.137916 2.104594 0.000000 339 6
1.993638 2.241742 0.000000 340 6
1.840582 2.369020 0.000000 341 6
1.679423 2.485868 0.000000 342 6
