ply
format ascii 1.0
element vertex 707
property float x
property float y
property float z
property int group_id
end_header
0.000000 0.000000 0.000000 0
0.010000 -0.000047 0.000000 0
0.019999 -0.000188 0.000000 0
0.029997 -0.000424 0.000000 0
0.039993 -0.000754 0.000000 0
0.049986 -0.001178 0.000000 0
0.059976 -0.001696 0.000000 0
0.069962 -0.002309 0.000000 0
0.079943 -0.003015 0.000000 0
0.089919 -0.003816 0.000000 0
0.099889 -0.004711 0.000000 0
0.109852 -0.005699 0.000000 0
0.119808 -0.006782 0.000000 0
0.129756 -0.007959 0.000000 0
0.139695 -0.009230 0.000000 0
0.149625 -0.010594 0.000000 0
0.159545 -0.012052 0.000000 0
0.169455 -0.013604 0.000000 0
0.179353 -0.015250 0.000000 0
0.189239 -0.016989 0.000000 0
0.199112 -0.018822 0.000000 0
0.208973 -0.020748 0.000000 0
0.218819 -0.022767 0.000000 0
0.228650 -0.024880 0.000000 0
0.238467 -0.027086 0.000000 0
0.248267 -0.029384 0.000000 0
0.258051 -0.031776 0.000000 0
0.267817 -0.034261 0.000000 0
0.277566 -0.036838 0.000000 0
0.287296 -0.039508 0.000000 0
0.297007 -0.042270 0.000000 0
0.306698 -0.045125 0.000000 0
0.316369 -0.048072 0.000000 0
0.326018 -0.051111 0.000000 0
0.335645 -0.054242 0.000000 0
0.345250 -0.057465 0.000000 0
0.354832 -0.060780 0.000000 0
0.364390 -0.064186 0.000000 0
0.373924 -0.067684 0.000000 0
0.383432 -0.071273 0.000000 0
0.392915 -0.074953 0.000000 0
0.402371 -0.078723 0.000000 0
0.411801 -0.082585 0.000000 0
0.421202 -0.086537 0.000000 0
0.430576 -0.090580 0.000000 0
0.439920 -0.094712 0.000000 0
0.449235 -0.098935 0.000000 0
0.458519 -0.103248 0.000000 0
0.467773 -0.107650 0.000000 0
0.476995 -0.112142 0.000000 0
0.486185 -0.116723 0.000000 0
0.495342 -0.121393 0.000000 0
0.504466 -0.126152 0.000000 0
0.513555 -0.130999 0.000000 0
0.522610 -0.135935 0.000000 0
0.531630 -0.140959 0.000000 0
0.540614 -0.146071 0.000000 0
0.549561 -0.151271 0.000000 0
0.558471 -0.156558 0.000000 0
0.567343 -0.161933 0.000000 0
0.576176 -0.167395 0.000000 0
0.584971 -0.172943 0.000000 0
0.593725 -0.178578 0.000000 0
0.602440 -0.184299 0.000000 0
0.611113 -0.190107 0.000000 0
0.619745 -0.196000 0.000000 0
0.628335 -0.201978 0.000000 0
0.636882 -0.208042 0.000000 0
0.645385 -0.214191 0.000000 0
0.653845 -0.220424 0.000000 0
0.662260 -0.226742 0.000000 0
0.670629 -0.233144 0.000000 0
0.678953 -0.239630 0.000000 0
0.687231 -0.246199 0.000000 0
0.695461 -0.252852 0.000000 0
0.703644 -0.259588 0.000000 0
0.711778 -0.266406 0.000000 0
0.719863 -0.273307 0.000000 0
0.727900 -0.280289 0.000000 0
0.735886 -0.287354 0.000000 0
0.743821 -0.294500 0.000000 0
0.751705 -0.301727 0.000000 0
0.759538 -0.309034 0.000000 0
0.767318 -0.316422 0.000000 0
0.775045 -0.323891 0.000000 0
0.782719 -0.331439 0.000000 0
0.790338 -0.339066 0.000000 0
0.797903 -0.346772 0.000000 0
0.805412 -0.354558 0.000000 0
0.812866 -0.362421 0.000000 0
0.820263 -0.370363 0.000000 0
0.827603 -0.378382 0.000000 0
0.834886 -0.386479 0.000000 0
0.842110 -0.394652 0.000000 0
0.849276 -0.402903 0.000000 0
0.856382 -0.411229 0.000000 0
0.863429 -0.419631 0.000000 0
0.870415 -0.428109 0.000000 0
0.877341 -0.436661 0.000000 0
0.884205 -0.445289 0.000000 0
0.891007 -0.453990 0.000000 0
0.000000 0.000000 0.000000 1
0.010000 -0.000031 0.000000 1
0.020000 -0.000126 0.000000 1
0.029999 -0.000283 0.000000 1
0.039997 -0.000503 0.000000 1
0.049994 -0.000785 0.000000 1
0.059989 -0.001131 0.000000 1
0.069983 -0.001539 0.000000 1
0.079975 -0.002010 0.000000 1
0.089964 -0.002544 0.000000 1
0.099951 -0.003141 0.000000 1
0.109934 -0.003801 0.000000 1
0.119915 -0.004523 0.000000 1
0.129892 -0.005308 0.000000 1
0.139865 -0.006156 0.000000 1
0.149833 -0.007066 0.000000 1
0.159798 -0.008039 0.000000 1
0.169758 -0.009075 0.000000 1
0.179712 -0.010173 0.000000 1
0.189662 -0.011334 0.000000 1
0.199605 -0.012558 0.000000 1
0.209543 -0.013844 0.000000 1
0.219475 -0.015193 0.000000 1
0.229400 -0.016605 0.000000 1
0.239318 -0.018078 0.000000 1
0.249229 -0.019615 0.000000 1
0.259133 -0.021214 0.000000 1
0.269029 -0.022875 0.000000 1
0.278917 -0.024598 0.000000 1
0.288797 -0.026384 0.000000 1
0.298669 -0.028232 0.000000 1
0.308531 -0.030143 0.000000 1
0.318384 -0.032116 0.000000 1
0.328228 -0.034151 0.000000 1
0.338062 -0.036248 0.000000 1
0.347886 -0.038407 0.000000 1
0.357700 -0.040628 0.000000 1
0.367503 -0.042912 0.000000 1
0.377295 -0.045257 0.000000 1
0.387076 -0.047664 0.000000 1
0.396846 -0.050133 0.000000 1
0.406604 -0.052664 0.000000 1
0.416349 -0.055257 0.000000 1
0.426082 -0.057912 0.000000 1
0.435803 -0.060628 0.000000 1
0.445511 -0.063406 0.000000 1
0.455205 -0.066245 0.000000 1
0.464886 -0.069146 0.000000 1
0.474553 -0.072108 0.000000 1
0.484206 -0.075132 0.000000 1
0.493844 -0.078217 0.000000 1
0.503468 -0.081364 0.000000 1
0.513077 -0.084571 0.000000 1
0.522670 -0.087840 0.000000 1
0.532248 -0.091170 0.000000 1
0.541810 -0.094561 0.000000 1
0.551356 -0.098013 0.000000 1
0.560885 -0.101526 0.000000 1
0.570398 -0.105099 0.000000 1
0.579894 -0.108734 0.000000 1
0.589372 -0.112429 0.000000 1
0.598833 -0.116184 0.000000 1
0.608276 -0.120001 0.000000 1
0.617701 -0.123877 0.000000 1
0.627107 -0.127814 0.000000 1
0.636495 -0.131812 0.000000 1
0.645863 -0.135869 0.000000 1
0.655213 -0.139987 0.000000 1
0.664542 -0.144165 0.000000 1
0.673852 -0.148403 0.000000 1
0.683142 -0.152700 0.000000 1
0.692411 -0.157058 0.000000 1
0.701659 -0.161475 0.000000 1
0.710887 -0.165952 0.000000 1
0.720093 -0.170488 0.000000 1
0.729277 -0.175084 0.000000 1
0.738440 -0.179739 0.000000 1
0.747581 -0.184454 0.000000 1
0.756699 -0.189227 0.000000 1
0.765794 -0.194060 0.000000 1
0.774867 -0.198952 0.000000 1
0.783916 -0.203903 0.000000 1
0.792941 -0.208912 0.000000 1
0.801943 -0.213980 0.000000 1
0.810921 -0.219107 0.000000 1
0.819874 -0.224292 0.000000 1
0.828802 -0.229536 0.000000 1
0.837706 -0.234838 0.000000 1
0.846584 -0.240198 0.000000 1
0.855437 -0.245616 0.000000 1
0.864264 -0.251092 0.000000 1
0.873065 -0.256626 0.000000 1
0.881840 -0.262218 0.000000 1
0.890588 -0.267867 0.000000 1
0.899309 -0.273574 0.000000 1
0.908003 -0.279338 0.000000 1
0.916670 -0.285160 0.000000 1
0.925309 -0.291039 0.000000 1
0.933920 -0.296975 0.000000 1
0.942502 -0.302967 0.000000 1
0.951057 -0.309017 0.000000 1
0.000000 0.000000 0.000000 2
0.010000 -0.000016 0.000000 2
0.020000 -0.000063 0.000000 2
0.030000 -0.000141 0.000000 2
0.039999 -0.000251 0.000000 2
0.049998 -0.000393 0.000000 2
0.059997 -0.000565 0.000000 2
0.069996 -0.000770 0.000000 2
0.079994 -0.001005 0.000000 2
0.089991 -0.001272 0.000000 2
0.099988 -0.001571 0.000000 2
0.109984 -0.001901 0.000000 2
0.119979 -0.002262 0.000000 2
0.129973 -0.002654 0.000000 2
0.139966 -0.003079 0.000000 2
0.149958 -0.003534 0.000000 2
0.159949 -0.004021 0.000000 2
0.169939 -0.004539 0.000000 2
0.179928 -0.005089 0.000000 2
0.189915 -0.005670 0.000000 2
0.199901 -0.006282 0.000000 2
0.209886 -0.006926 0.000000 2
0.219869 -0.007601 0.000000 2
0.229850 -0.008308 0.000000 2
0.239829 -0.009046 0.000000 2
0.249807 -0.009815 0.000000 2
0.259783 -0.010616 0.000000 2
0.269757 -0.011448 0.000000 2
0.279729 -0.012311 0.000000 2
0.289699 -0.013206 0.000000 2
0.299667 -0.014132 0.000000 2
0.309633 -0.015089 0.000000 2
0.319596 -0.016078 0.000000 2
0.329557 -0.017098 0.000000 2
0.339515 -0.018150 0.000000 2
0.349471 -0.019233 0.000000 2
0.359425 -0.020347 0.000000 2
0.369375 -0.021492 0.000000 2
0.379323 -0.022669 0.000000 2
0.389268 -0.023877 0.000000 2
0.399211 -0.025116 0.000000 2
0.409150 -0.026387 0.000000 2
0.419086 -0.027689 0.000000 2
0.429019 -0.029022 0.000000 2
0.438950 -0.030386 0.000000 2
0.448876 -0.031782 0.000000 2
0.458800 -0.033209 0.000000 2
0.468720 -0.034667 0.000000 2
0.478636 -0.036157 0.000000 2
0.488549 -0.037678 0.000000 2
0.498459 -0.039230 0.000000 2
0.508364 -0.040813 0.000000 2
0.518266 -0.042427 0.000000 2
0.528164 -0.044073 0.000000 2
0.538059 -0.045750 0.000000 2
0.547949 -0.047458 0.000000 2
0.557835 -0.049197 0.000000 2
0.567717 -0.050967 0.000000 2
0.577595 -0.052769 0.000000 2
0.587468 -0.054601 0.000000 2
0.597337 -0.056465 0.000000 2
0.607202 -0.058360 0.000000 2
0.617062 -0.060286 0.000000 2
0.626918 -0.062243 0.000000 2
0.636769 -0.064231 0.000000 2
0.646615 -0.066251 0.000000 2
0.656456 -0.068301 0.000000 2
0.666293 -0.070383 0.000000 2
0.676125 -0.072496 0.000000 2
0.685951 -0.074639 0.000000 2
0.695773 -0.076814 0.000000 2
0.705589 -0.079020 0.000000 2
0.715400 -0.081257 0.000000 2
0.725206 -0.083524 0.000000 2
0.735006 -0.085823 0.000000 2
0.744801 -0.088153 0.000000 2
0.754591 -0.090514 0.000000 2
0.764375 -0.092906 0.000000 2
0.774153 -0.095328 0.000000 2
0.783925 -0.097782 0.000000 2
0.793692 -0.100267 0.000000 2
0.803452 -0.102782 0.000000 2
0.813207 -0.105329 0.000000 2
0.822956 -0.107906 0.000000 2
0.832698 -0.110514 0.000000 2
0.842435 -0.113153 0.000000 2
0.852165 -0.115823 0.000000 2
0.861889 -0.118524 0.000000 2
0.871606 -0.121255 0.000000 2
0.881317 -0.124018 0.000000 2
0.891021 -0.126811 0.000000 2
0.900719 -0.129635 0.000000 2
0.910410 -0.132490 0.000000 2
0.920094 -0.135375 0.000000 2
0.929772 -0.138292 0.000000 2
0.939442 -0.141239 0.000000 2
0.949106 -0.144217 0.000000 2
0.958762 -0.147225 0.000000 2
0.968411 -0.150264 0.000000 2
0.978054 -0.153334 0.000000 2
0.987688 -0.156434 0.000000 2
0.000000 0.000000 0.000000 3
0.010000 0.000000 0.000000 3
0.020000 0.000000 0.000000 3
0.030000 0.000000 0.000000 3
0.040000 0.000000 0.000000 3
0.050000 0.000000 0.000000 3
0.060000 0.000000 0.000000 3
0.070000 0.000000 0.000000 3
0.080000 0.000000 0.000000 3
0.090000 0.000000 0.000000 3
0.100000 0.000000 0.000000 3
0.110000 0.000000 0.000000 3
0.120000 0.000000 0.000000 3
0.130000 0.000000 0.000000 3
0.140000 0.000000 0.000000 3
0.150000 0.000000 0.000000 3
0.160000 0.000000 0.000000 3
0.170000 0.000000 0.000000 3
0.180000 0.000000 0.000000 3
0.190000 0.000000 0.000000 3
0.200000 0.000000 0.000000 3
0.210000 0.000000 0.000000 3
0.220000 0.000000 0.000000 3
0.230000 0.000000 0.000000 3
0.240000 0.000000 0.000000 3
0.250000 0.000000 0.000000 3
0.260000 0.000000 0.000000 3
0.270000 0.000000 0.000000 3
0.280000 0.000000 0.000000 3
0.290000 0.000000 0.000000 3
0.300000 0.000000 0.000000 3
0.310000 0.000000 0.000000 3
0.320000 0.000000 0.000000 3
0.330000 0.000000 0.000000 3
0.340000 0.000000 0.000000 3
0.350000 0.000000 0.000000 3
0.360000 0.000000 0.000000 3
0.370000 0.000000 0.000000 3
0.380000 0.000000 0.000000 3
0.390000 0.000000 0.000000 3
0.400000 0.000000 0.000000 3
0.410000 0.000000 0.000000 3
0.420000 0.000000 0.000000 3
0.430000 0.000000 0.000000 3
0.440000 0.000000 0.000000 3
0.450000 0.000000 0.000000 3
0.460000 0.000000 0.000000 3
0.470000 0.000000 0.000000 3
0.480000 0.000000 0.000000 3
0.490000 0.000000 0.000000 3
0.500000 0.000000 0.000000 3
0.510000 0.000000 0.000000 3
0.520000 0.000000 0.000000 3
0.530000 0.000000 0.000000 3
0.540000 0.000000 0.000000 3
0.550000 0.000000 0.000000 3
0.560000 0.000000 0.000000 3
0.570000 0.000000 0.000000 3
0.580000 0.000000 0.000000 3
0.590000 0.000000 0.000000 3
0.600000 0.000000 0.000000 3
0.610000 0.000000 0.000000 3
0.620000 0.000000 0.000000 3
0.630000 0.000000 0.000000 3
0.640000 0.000000 0.000000 3
0.650000 0.000000 0.000000 3
0.660000 0.000000 0.000000 3
0.670000 0.000000 0.000000 3
0.680000 0.000000 0.000000 3
0.690000 0.000000 0.000000 3
0.700000 0.000000 0.000000 3
0.710000 0.000000 0.000000 3
0.720000 0.000000 0.000000 3
0.730000 0.000000 0.000000 3
0.740000 0.000000 0.000000 3
0.750000 0.000000 0.000000 3
0.760000 0.000000 0.000000 3
0.770000 0.000000 0.000000 3
0.780000 0.000000 0.000000 3
0.790000 0.000000 0.000000 3
0.800000 0.000000 0.000000 3
0.810000 0.000000 0.000000 3
0.820000 0.000000 0.000000 3
0.830000 0.000000 0.000000 3
0.840000 0.000000 0.000000 3
0.850000 0.000000 0.000000 3
0.860000 0.000000 0.000000 3
0.870000 0.000000 0.000000 3
0.880000 0.000000 0.000000 3
0.890000 0.000000 0.000000 3
0.900000 0.000000 0.000000 3
0.910000 0.000000 0.000000 3
0.920000 0.000000 0.000000 3
0.930000 0.000000 0.000000 3
0.940000 0.000000 0.000000 3
0.950000 0.000000 0.000000 3
0.960000 0.000000 0.000000 3
0.970000 0.000000 0.000000 3
0.980000 0.000000 0.000000 3
0.990000 0.000000 0.000000 3
1.000000 0.000000 0.000000 3
0.000000 0.000000 0.000000 4
0.010000 0.000016 0.000000 4
0.020000 0.000063 0.000000 4
0.030000 0.000141 0.000000 4
0.039999 0.000251 0.000000 4
0.049998 0.000393 0.000000 4
0.059997 0.000565 0.000000 4
0.069996 0.000770 0.000000 4
0.079994 0.001005 0.000000 4
0.089991 0.001272 0.000000 4
0.099988 0.001571 0.000000 4
0.109984 0.001901 0.000000 4
0.119979 0.002262 0.000000 4
0.129973 0.002654 0.000000 4
0.139966 0.003079 0.000000 4
0.149958 0.003534 0.000000 4
0.159949 0.004021 0.000000 4
0.169939 0.004539 0.000000 4
0.179928 0.005089 0.000000 4
0.189915 0.005670 0.000000 4
0.199901 0.006282 0.000000 4
0.209886 0.006926 0.000000 4
0.219869 0.007601 0.000000 4
0.229850 0.008308 0.000000 4
0.239829 0.009046 0.000000 4
0.249807 0.009815 0.000000 4
0.259783 0.010616 0.000000 4
0.269757 0.011448 0.000000 4
0.279729 0.012311 0.000000 4
0.289699 0.013206 0.000000 4
0.299667 0.014132 0.000000 4
0.309633 0.015089 0.000000 4
0.319596 0.016078 0.000000 4
0.329557 0.017098 0.000000 4
0.339515 0.018150 0.000000 4
0.349471 0.019233 0.000000 4
0.359425 0.020347 0.000000 4
0.369375 0.021492 0.000000 4
0.379323 0.022669 0.000000 4
0.389268 0.023877 0.000000 4
0.399211 0.025116 0.000000 4
0.409150 0.026387 0.000000 4
0.419086 0.027689 0.000000 4
0.429019 0.029022 0.000000 4
0.438950 0.030386 0.000000 4
0.448876 0.031782 0.000000 4
0.458800 0.033209 0.000000 4
0.468720 0.034667 0.000000 4
0.478636 0.036157 0.000000 4
0.488549 0.037678 0.000000 4
0.498459 0.039230 0.000000 4
0.508364 0.040813 0.000000 4
0.518266 0.042427 0.000000 4
0.528164 0.044073 0.000000 4
0.538059 0.045750 0.000000 4
0.547949 0.047458 0.000000 4
0.557835 0.049197 0.000000 4
0.567717 0.050967 0.000000 4
0.577595 0.052769 0.000000 4
0.587468 0.054601 0.000000 4
0.597337 0.056465 0.000000 4
0.607202 0.058360 0.000000 4
0.617062 0.060286 0.000000 4
0.626918 0.062243 0.000000 4
0.636769 0.064231 0.000000 4
0.646615 0.066251 0.000000 4
0.656456 0.068301 0.000000 4
0.666293 0.070383 0.000000 4
0.676125 0.072496 0.000000 4
0.685951 0.074639 0.000000 4
0.695773 0.076814 0.000000 4
0.705589 0.079020 0.000000 4
0.715400 0.081257 0.000000 4
0.725206 0.083524 0.000000 4
0.735006 0.085823 0.000000 4
0.744801 0.088153 0.000000 4
0.754591 0.090514 0.000000 4
0.764375 0.092906 0.000000 4
0.774153 0.095328 0.000000 4
0.783925 0.097782 0.000000 4
0.793692 0.100267 0.000000 4
0.803452 0.102782 0.000000 4
0.813207 0.105329 0.000000 4
0.822956 0.107906 0.000000 4
0.832698 0.110514 0.000000 4
0.842435 0.113153 0.000000 4
0.852165 0.115823 0.000000 4
0.861889 0.118524 0.000000 4
0.871606 0.121255 0.000000 4
0.881317 0.124018 0.000000 4
0.891021 0.126811 0.000000 4
0.900719 0.129635 0.000000 4
0.910410 0.132490 0.000000 4
0.920094 0.135375 0.000000 4
0.929772 0.138292 0.000000 4
0.939442 0.141239 0.000000 4
0.949106 0.144217 0.000000 4
0.958762 0.147225 0.000000 4
0.968411 0.150264 0.000000 4
0.978054 0.153334 0.000000 4
0.987688 0.156434 0.000000 4
0.000000 0.000000 0.000000 5
0.010000 0.000031 0.000000 5
0.020000 0.000126 0.000000 5
0.029999 0.000283 0.000000 5
0.039997 0.000503 0.000000 5
0.049994 0.000785 0.000000 5
0.059989 0.001131 0.000000 5
0.069983 0.001539 0.000000 5
0.079975 0.002010 0.000000 5
0.089964 0.002544 0.000000 5
0.099951 0.003141 0.000000 5
0.109934 0.003801 0.000000 5
0.119915 0.004523 0.000000 5
0.129892 0.005308 0.000000 5
0.139865 0.006156 0.000000 5
0.149833 0.007066 0.000000 5
0.159798 0.008039 0.000000 5
0.169758 0.009075 0.000000 5
0.179712 0.010173 0.000000 5
0.189662 0.011334 0.000000 5
0.199605 0.012558 0.000000 5
0.209543 0.013844 0.000000 5
0.219475 0.015193 0.000000 5
0.229400 0.016605 0.000000 5
0.239318 0.018078 0.000000 5
0.249229 0.019615 0.000000 5
0.259133 0.021214 0.000000 5
0.269029 0.022875 0.000000 5
0.278917 0.024598 0.000000 5
0.288797 0.026384 0.000000 5
0.298669 0.028232 0.000000 5
0.308531 0.030143 0.000000 5
0.318384 0.032116 0.000000 5
0.328228 0.034151 0.000000 5
0.338062 0.036248 0.000000 5
0.347886 0.038407 0.000000 5
0.357700 0.040628 0.000000 5
0.367503 0.042912 0.000000 5
0.377295 0.045257 0.000000 5
0.387076 0.047664 0.000000 5
0.396846 0.050133 0.000000 5
0.406604 0.052664 0.000000 5
0.416349 0.055257 0.000000 5
0.426082 0.057912 0.000000 5
0.435803 0.060628 0.000000 5
0.445511 0.063406 0.000000 5
0.455205 0.066245 0.000000 5
0.464886 0.069146 0.000000 5
0.474553 0.072108 0.000000 5
0.484206 0.075132 0.000000 5
0.493844 0.078217 0.000000 5
0.503468 0.081364 0.000000 5
0.513077 0.084571 0.000000 5
0.522670 0.087840 0.000000 5
0.532248 0.091170 0.000000 5
0.541810 0.094561 0.000000 5
0.551356 0.098013 0.000000 5
0.560885 0.101526 0.000000 5
0.570398 0.105099 0.000000 5
0.579894 0.108734 0.000000 5
0.589372 0.112429 0.000000 5
0.598833 0.116184 0.000000 5
0.608276 0.120001 0.000000 5
0.617701 0.123877 0.000000 5
0.627107 0.127814 0.000000 5
0.636495 0.131812 0.000000 5
0.645863 0.135869 0.000000 5
0.655213 0.139987 0.000000 5
0.664542 0.144165 0.000000 5
0.673852 0.148403 0.000000 5
0.683142 0.152700 0.000000 5
0.692411 0.157058 0.000000 5
0.701659 0.161475 0.000000 5
0.710887 0.165952 0.000000 5
0.720093 0.170488 0.000000 5
0.729277 0.175084 0.000000 5
0.738440 0.179739 0.000000 5
0.747581 0.184454 0.000000 5
0.756699 0.189227 0.000000 5
0.765794 0.194060 0.000000 5
0.774867 0.198952 0.000000 5
0.783916 0.203903 0.000000 5
0.792941 0.208912 0.000000 5
0.801943 0.213980 0.000000 5
0.810921 0.219107 0.000000 5
0.819874 0.224292 0.000000 5
0.828802 0.229536 0.000000 5
0.837706 0.234838 0.000000 5
0.846584 0.240198 0.000000 5
0.855437 0.245616 0.000000 5
0.864264 0.251092 0.000000 5
0.873065 0.256626 0.000000 5
0.881840 0.262218 0.000000 5
0.890588 0.267867 0.000000 5
0.899309 0.273574 0.000000 5
0.908003 0.279338 0.000000 5
0.916670 0.285160 0.000000 5
0.925309 0.291039 0.000000 5
0.933920 0.296975 0.000000 5
0.942502 0.302967 0.000000 5
0.951057 0.309017 0.000000 5
0.000000 0.000000 0.000000 6
0.010000 0.000047 0.000000 6
0.019999 0.000188 0.000000 6
0.029997 0.000424 0.000000 6
0.039993 0.000754 0.000000 6
0.049986 0.001178 0.000000 6
0.059976 0.001696 0.000000 6
0.069962 0.002309 0.000000 6
0.079943 0.003015 0.000000 6
0.089919 0.003816 0.000000 6
0.099889 0.004711 0.000000 6
0.109852 0.005699 0.000000 6
0.119808 0.006782 0.000000 6
0.129756 0.007959 0.000000 6
0.139695 0.009230 0.000000 6
0.149625 0.010594 0.000000 6
0.159545 0.012052 0.000000 6
0.169455 0.013604 0.000000 6
0.179353 0.015250 0.000000 6
0.189239 0.016989 0.000000 6
0.199112 0.018822 0.000000 6
0.208973 0.020748 0.000000 6
0.218819 0.022767 0.000000 6
0.228650 0.024880 0.000000 6
0.238467 0.027086 0.000000 6
0.248267 0.029384 0.000000 6
0.258051 0.031776 0.000000 6
0.267817 0.034261 0.000000 6
0.277566 0.036838 0.000000 6
0.287296 0.039508 0.000000 6
0.297007 0.042270 0.000000 6
0.306698 0.045125 0.000000 6
0.316369 0.048072 0.000000 6
0.326018 0.051111 0.000000 6
0.335645 0.054242 0.000000 6
0.345250 0.057465 0.000000 6
0.354832 0.060780 0.000000 6
0.364390 0.064186 0.000000 6
0.373924 0.067684 0.000000 6
0.383432 0.071273 0.000000 6
0.392915 0.074953 0.000000 6
0.402371 0.078723 0.000000 6
0.411801 0.082585 0.000000 6
0.421202 0.086537 0.000000 6
0.430576 0.090580 0.000000 6
0.439920 0.094712 0.000000 6
0.449235 0.098935 0.000000 6
0.458519 0.103248 0.000000 6
0.467773 0.107650 0.000000 6
0.476995 0.112142 0.000000 6
0.486185 0.116723 0.000000 6
0.495342 0.121393 0.000000 6
0.504466 0.126152 0.000000 6
0.513555 0.130999 0.000000 6
0.522610 0.135935 0.000000 6
0.531630 0.140959 0.000000 6
0.540614 0.146071 0.000000 6
0.549561 0.151271 0.000000 6
0.558471 0.156558 0.000000 6
0.567343 0.161933 0.000000 6
0.576176 0.167395 0.000000 6
0.584971 0.172943 0.000000 6
0.593725 0.178578 0.000000 6
0.602440 0.184299 0.000000 6
0.611113 0.190107 0.000000 6
0.619745 0.196000 0.000000 6
0.628335 0.201978 0.000000 6
0.636882 0.208042 0.000000 6
0.645385 0.214191 0.000000 6
0.653845 0.220424 0.000000 6
0.662260 0.226742 0.000000 6
0.670629 0.233144 0.000000 6
0.678953 0.239630 0.000000 6
0.687231 0.246199 0.000000 6
0.695461 0.252852 0.000000 6
0.703644 0.259588 0.000000 6
0.711778 0.266406 0.000000 6
0.719863 0.273307 0.000000 6
0.727900 0.280289 0.000000 6
0.735886 0.287354 0.000000 6
0.743821 0.294500 0.000000 6
0.751705 0.301727 0.000000 6
0.759538 0.309034 0.000000 6
0.767318 0.316422 0.000000 6
0.775045 0.323891 0.000000 6
0.782719 0.331439 0.000000 6
0.790338 0.339066 0.000000 6
0.797903 0.346772 0.000000 6
0.805412 0.354558 0.000000 6
0.812866 0.362421 0.000000 6
0.820263 0.370363 0.000000 6
0.827603 0.378382 0.000000 6
0.834886 0.386479 0.000000 6
0.842110 0.394652 0.000000 6
0.849276 0.402903 0.000000 6
0.856382 0.411229 0.000000 6
0.863429 0.419631 0.000000 6
0.870415 0.428109 0.000000 6
0.877341 0.436661 0.000000 6
0.884205 0.445289 0.000000 6
0.891007 0.453990 0.000000 6
